M48
;Layer_Color=9474304
;FILE_FORMAT=4:4
METRIC,LZ
;TYPE=PLATED
T1F00S00C0.7112
T2F00S00C0.9000
T3F00S00C1.0200
T4F00S00C2.0000
%
T01
X0032131Y-00077724
X00430022Y-00102362
T02
X0014224Y-00330962
Y-00305562
Y-00280162
Y-00254762
Y-00229362
Y-00203962
Y-00178562
Y-00153162
X00278384Y-003683
X00303784
X00329184
X00354584
X00379984
X00405384
X00430784
X00456184
T03
X00233382Y-00307594
X00258782
X00284182
X00309582
X00334982
X00360382
X00385782
Y-00053594
X00360382
X00334982
X00309582
X00284182
X00258782
X00233382
X00411182
X00436582
X00461982
X00487382
X00512782
X00538182
X00563582
X00588982
Y-00307594
X00563582
X00538182
X00512782
X00487382
X00461982
X00436582
X00411182
T04
X00590268Y-0036195
X00650268
M30
