G04*
G04 #@! TF.GenerationSoftware,Altium Limited,Altium Designer,20.2.3 (150)*
G04*
G04 Layer_Color=16711935*
%FSLAX44Y44*%
%MOMM*%
G71*
G04*
G04 #@! TF.SameCoordinates,5F06F80F-724F-48A1-AB94-725DB31EE99F*
G04*
G04*
G04 #@! TF.FilePolarity,Negative*
G04*
G01*
G75*
%ADD26C,3.2032*%
%ADD27C,2.2032*%
%ADD28R,2.2032X2.2032*%
%ADD29C,1.7032*%
%ADD30R,1.7032X1.7032*%
%ADD31R,1.7032X1.7032*%
%ADD32C,4.7032*%
%ADD33C,1.4732*%
D26*
X668582Y-57794D02*
D03*
X264922Y-179324D02*
D03*
X668582Y-302894D02*
D03*
D27*
X233382Y-307594D02*
D03*
X258782D02*
D03*
X284182D02*
D03*
X309582D02*
D03*
X334982D02*
D03*
X360382D02*
D03*
X385782D02*
D03*
X411182D02*
D03*
X436582D02*
D03*
X461982D02*
D03*
X487382D02*
D03*
X512782D02*
D03*
X538182D02*
D03*
X563582D02*
D03*
X588982D02*
D03*
X233382Y-53594D02*
D03*
X258782D02*
D03*
X284182D02*
D03*
X309582D02*
D03*
X334982D02*
D03*
X360382D02*
D03*
X385782D02*
D03*
X411182D02*
D03*
X436582D02*
D03*
X461982D02*
D03*
X487382D02*
D03*
X512782D02*
D03*
X538182D02*
D03*
X563582D02*
D03*
D28*
X588982D02*
D03*
D29*
X142240Y-153162D02*
D03*
Y-178562D02*
D03*
Y-203962D02*
D03*
Y-229362D02*
D03*
Y-254762D02*
D03*
Y-280162D02*
D03*
Y-305562D02*
D03*
X430784Y-368300D02*
D03*
X405384D02*
D03*
X379984D02*
D03*
X354584D02*
D03*
X329184D02*
D03*
X303784D02*
D03*
X278384D02*
D03*
D30*
X142240Y-330962D02*
D03*
D31*
X456184Y-368300D02*
D03*
D32*
X590268Y-361950D02*
D03*
X650268D02*
D03*
D33*
X430022Y-102362D02*
D03*
X321310Y-77724D02*
D03*
M02*
