G04*
G04 #@! TF.GenerationSoftware,Altium Limited,Altium Designer,20.2.3 (150)*
G04*
G04 Layer_Color=128*
%FSLAX44Y44*%
%MOMM*%
G71*
G04*
G04 #@! TF.SameCoordinates,5F06F80F-724F-48A1-AB94-725DB31EE99F*
G04*
G04*
G04 #@! TF.FilePolarity,Positive*
G04*
G01*
G75*
%ADD45C,0.0508*%
D45*
X653582Y-57794D02*
X683582D01*
X668582Y-72794D02*
Y-42794D01*
X249922Y-179324D02*
X279922D01*
X264922Y-194324D02*
Y-164324D01*
X653582Y-302894D02*
X683582D01*
X668582Y-317894D02*
Y-287894D01*
X228282Y-307594D02*
X238482D01*
X233382Y-312694D02*
Y-302494D01*
X253682Y-307594D02*
X263882D01*
X258782Y-312694D02*
Y-302494D01*
X279082Y-307594D02*
X289282D01*
X284182Y-312694D02*
Y-302494D01*
X304482Y-307594D02*
X314682D01*
X309582Y-312694D02*
Y-302494D01*
X329882Y-307594D02*
X340082D01*
X334982Y-312694D02*
Y-302494D01*
X355282Y-307594D02*
X365482D01*
X360382Y-312694D02*
Y-302494D01*
X380682Y-307594D02*
X390882D01*
X385782Y-312694D02*
Y-302494D01*
X406082Y-307594D02*
X416282D01*
X411182Y-312694D02*
Y-302494D01*
X431482Y-307594D02*
X441682D01*
X436582Y-312694D02*
Y-302494D01*
X456882Y-307594D02*
X467082D01*
X461982Y-312694D02*
Y-302494D01*
X482282Y-307594D02*
X492482D01*
X487382Y-312694D02*
Y-302494D01*
X507682Y-307594D02*
X517882D01*
X512782Y-312694D02*
Y-302494D01*
X533082Y-307594D02*
X543282D01*
X538182Y-312694D02*
Y-302494D01*
X558482Y-307594D02*
X568682D01*
X563582Y-312694D02*
Y-302494D01*
X583882Y-307594D02*
X594082D01*
X588982Y-312694D02*
Y-302494D01*
X228282Y-53594D02*
X238482D01*
X233382Y-58694D02*
Y-48494D01*
X253682Y-53594D02*
X263882D01*
X258782Y-58694D02*
Y-48494D01*
X279082Y-53594D02*
X289282D01*
X284182Y-58694D02*
Y-48494D01*
X304482Y-53594D02*
X314682D01*
X309582Y-58694D02*
Y-48494D01*
X329882Y-53594D02*
X340082D01*
X334982Y-58694D02*
Y-48494D01*
X355282Y-53594D02*
X365482D01*
X360382Y-58694D02*
Y-48494D01*
X380682Y-53594D02*
X390882D01*
X385782Y-58694D02*
Y-48494D01*
X406082Y-53594D02*
X416282D01*
X411182Y-58694D02*
Y-48494D01*
X431482Y-53594D02*
X441682D01*
X436582Y-58694D02*
Y-48494D01*
X456882Y-53594D02*
X467082D01*
X461982Y-58694D02*
Y-48494D01*
X482282Y-53594D02*
X492482D01*
X487382Y-58694D02*
Y-48494D01*
X507682Y-53594D02*
X517882D01*
X512782Y-58694D02*
Y-48494D01*
X533082Y-53594D02*
X543282D01*
X538182Y-58694D02*
Y-48494D01*
X558482Y-53594D02*
X568682D01*
X563582Y-58694D02*
Y-48494D01*
X583882Y-53594D02*
X594082D01*
X588982Y-58694D02*
Y-48494D01*
X137740Y-153162D02*
X146740D01*
X142240Y-157662D02*
Y-148662D01*
X137740Y-178562D02*
X146740D01*
X142240Y-183062D02*
Y-174062D01*
X137740Y-203962D02*
X146740D01*
X142240Y-208462D02*
Y-199462D01*
X137740Y-229362D02*
X146740D01*
X142240Y-233862D02*
Y-224862D01*
X137740Y-254762D02*
X146740D01*
X142240Y-259262D02*
Y-250262D01*
X137740Y-280162D02*
X146740D01*
X142240Y-284662D02*
Y-275662D01*
X137740Y-305562D02*
X146740D01*
X142240Y-310062D02*
Y-301062D01*
X137740Y-330962D02*
X146740D01*
X142240Y-335462D02*
Y-326462D01*
X451684Y-368300D02*
X460684D01*
X456184Y-372800D02*
Y-363800D01*
X426284Y-368300D02*
X435284D01*
X430784Y-372800D02*
Y-363800D01*
X400884Y-368300D02*
X409884D01*
X405384Y-372800D02*
Y-363800D01*
X375484Y-368300D02*
X384484D01*
X379984Y-372800D02*
Y-363800D01*
X350084Y-368300D02*
X359084D01*
X354584Y-372800D02*
Y-363800D01*
X324684Y-368300D02*
X333684D01*
X329184Y-372800D02*
Y-363800D01*
X299284Y-368300D02*
X308284D01*
X303784Y-372800D02*
Y-363800D01*
X273884Y-368300D02*
X282884D01*
X278384Y-372800D02*
Y-363800D01*
X580268Y-361950D02*
X600268D01*
X590268Y-371950D02*
Y-351950D01*
X640268Y-361950D02*
X660268D01*
X650268Y-371950D02*
Y-351950D01*
X426466Y-102362D02*
X433578D01*
X430022Y-105918D02*
Y-98806D01*
X317754Y-77724D02*
X324866D01*
X321310Y-81280D02*
Y-74168D01*
M02*
