G04*
G04 #@! TF.GenerationSoftware,Altium Limited,Altium Designer,20.2.3 (150)*
G04*
G04 Layer_Physical_Order=1*
G04 Layer_Color=255*
%FSLAX44Y44*%
%MOMM*%
G71*
G04*
G04 #@! TF.SameCoordinates,5F06F80F-724F-48A1-AB94-725DB31EE99F*
G04*
G04*
G04 #@! TF.FilePolarity,Positive*
G04*
G01*
G75*
%ADD16R,1.1325X1.3770*%
%ADD17R,1.2075X1.7010*%
%ADD18R,1.3500X1.4100*%
%ADD19R,2.5950X3.6000*%
%ADD20R,2.5950X0.6440*%
%ADD34C,0.6350*%
%ADD35C,0.8890*%
%ADD36C,3.0000*%
%ADD37C,2.0000*%
%ADD38R,2.0000X2.0000*%
%ADD39C,1.5000*%
%ADD40R,1.5000X1.5000*%
%ADD41R,1.5000X1.5000*%
%ADD42C,4.5000*%
%ADD43C,1.2700*%
G36*
X694615Y-394641D02*
X387945D01*
X387775Y-394151D01*
X387734Y-393371D01*
X389438Y-392232D01*
X403493Y-378177D01*
X405384Y-378427D01*
X408005Y-378081D01*
X410448Y-377070D01*
X412545Y-375461D01*
X414154Y-373363D01*
X415166Y-370921D01*
X415511Y-368300D01*
X415166Y-365679D01*
X414154Y-363237D01*
X412545Y-361139D01*
X410448Y-359530D01*
X408005Y-358518D01*
X405384Y-358173D01*
X402763Y-358518D01*
X400321Y-359530D01*
X398224Y-361139D01*
X396614Y-363237D01*
X395603Y-365679D01*
X395258Y-368300D01*
X395448Y-369742D01*
X382904Y-382285D01*
X123064D01*
X93457Y-352678D01*
Y-97918D01*
X170562Y-20813D01*
X282828D01*
X303410Y-41395D01*
X303289Y-42628D01*
X303258Y-42640D01*
X300638Y-44650D01*
X298628Y-47270D01*
X297569Y-49827D01*
X296195D01*
X295136Y-47270D01*
X293126Y-44650D01*
X290506Y-42640D01*
X287456Y-41377D01*
X284182Y-40946D01*
X280908Y-41377D01*
X277858Y-42640D01*
X275238Y-44650D01*
X273228Y-47270D01*
X272169Y-49827D01*
X270795D01*
X269736Y-47270D01*
X267726Y-44650D01*
X265106Y-42640D01*
X262056Y-41377D01*
X260972Y-41234D01*
X260291Y-40214D01*
X247452Y-27376D01*
X245562Y-26113D01*
X243332Y-25669D01*
X194818D01*
X192588Y-26113D01*
X190698Y-27376D01*
X104846Y-113228D01*
X103583Y-115118D01*
X103139Y-117348D01*
Y-260350D01*
X103583Y-262580D01*
X104846Y-264470D01*
X124658Y-284282D01*
X126548Y-285545D01*
X128778Y-285989D01*
X134056D01*
X135080Y-287323D01*
X137177Y-288932D01*
X139619Y-289943D01*
X142240Y-290289D01*
X144861Y-289943D01*
X147303Y-288932D01*
X149401Y-287323D01*
X151010Y-285225D01*
X152022Y-282783D01*
X152367Y-280162D01*
X152022Y-277541D01*
X151010Y-275098D01*
X149401Y-273001D01*
X147303Y-271392D01*
X144861Y-270380D01*
X142240Y-270035D01*
X139619Y-270380D01*
X137177Y-271392D01*
X135080Y-273001D01*
X134056Y-274335D01*
X131192D01*
X114793Y-257936D01*
Y-119762D01*
X197232Y-37323D01*
X240918D01*
X249147Y-45552D01*
X247828Y-47270D01*
X246769Y-49827D01*
X245395D01*
X244336Y-47270D01*
X242326Y-44650D01*
X239706Y-42640D01*
X236656Y-41377D01*
X233382Y-40946D01*
X230108Y-41377D01*
X227058Y-42640D01*
X224438Y-44650D01*
X222428Y-47270D01*
X221165Y-50320D01*
X220734Y-53594D01*
X221165Y-56868D01*
X222428Y-59918D01*
X224438Y-62538D01*
X227058Y-64548D01*
X230108Y-65811D01*
X233382Y-66242D01*
X236656Y-65811D01*
X239706Y-64548D01*
X242326Y-62538D01*
X244336Y-59918D01*
X245395Y-57361D01*
X246769D01*
X247828Y-59918D01*
X249838Y-62538D01*
X252458Y-64548D01*
X255508Y-65811D01*
X258782Y-66242D01*
X262056Y-65811D01*
X265106Y-64548D01*
X267726Y-62538D01*
X269736Y-59918D01*
X270795Y-57361D01*
X272169D01*
X273228Y-59918D01*
X275238Y-62538D01*
X277858Y-64548D01*
X278355Y-64754D01*
Y-88348D01*
X278799Y-90578D01*
X280062Y-92468D01*
X294584Y-106990D01*
X296474Y-108253D01*
X298704Y-108697D01*
X423677D01*
X423682Y-108702D01*
X425539Y-110127D01*
X427701Y-111023D01*
X430022Y-111329D01*
X432343Y-111023D01*
X434505Y-110127D01*
X436362Y-108702D01*
X437787Y-106845D01*
X438683Y-104683D01*
X438989Y-102362D01*
X438683Y-100041D01*
X437787Y-97879D01*
X436362Y-96022D01*
X434505Y-94597D01*
X432343Y-93701D01*
X430022Y-93395D01*
X427701Y-93701D01*
X425539Y-94597D01*
X423682Y-96022D01*
X422898Y-97043D01*
X301118D01*
X290009Y-85934D01*
Y-64754D01*
X290506Y-64548D01*
X293126Y-62538D01*
X295136Y-59918D01*
X296195Y-57361D01*
X297569D01*
X298628Y-59918D01*
X300638Y-62538D01*
X303258Y-64548D01*
X306308Y-65811D01*
X309582Y-66242D01*
X312856Y-65811D01*
X315906Y-64548D01*
X318526Y-62538D01*
X320536Y-59918D01*
X321595Y-57361D01*
X322969D01*
X324028Y-59918D01*
X326038Y-62538D01*
X328658Y-64548D01*
X329155Y-64754D01*
Y-69812D01*
X327613Y-71355D01*
X325793Y-69959D01*
X323631Y-69063D01*
X321310Y-68757D01*
X318989Y-69063D01*
X316827Y-69959D01*
X314970Y-71384D01*
X313545Y-73241D01*
X312649Y-75403D01*
X312343Y-77724D01*
X312649Y-80045D01*
X313545Y-82207D01*
X314970Y-84064D01*
X316827Y-85489D01*
X318989Y-86385D01*
X321310Y-86691D01*
X323631Y-86385D01*
X325793Y-85489D01*
X327650Y-84064D01*
X328044Y-83551D01*
X329484D01*
X331714Y-83107D01*
X333604Y-81844D01*
X339102Y-76346D01*
X340365Y-74456D01*
X340809Y-72226D01*
Y-64754D01*
X341306Y-64548D01*
X343926Y-62538D01*
X345936Y-59918D01*
X346995Y-57361D01*
X348369D01*
X349428Y-59918D01*
X351438Y-62538D01*
X354058Y-64548D01*
X357108Y-65811D01*
X360382Y-66242D01*
X363656Y-65811D01*
X366706Y-64548D01*
X369326Y-62538D01*
X371336Y-59918D01*
X372395Y-57361D01*
X373769D01*
X374828Y-59918D01*
X376838Y-62538D01*
X379458Y-64548D01*
X382508Y-65811D01*
X385782Y-66242D01*
X389056Y-65811D01*
X392106Y-64548D01*
X394726Y-62538D01*
X396736Y-59918D01*
X397795Y-57361D01*
X399169D01*
X400228Y-59918D01*
X402238Y-62538D01*
X404858Y-64548D01*
X407908Y-65811D01*
X411182Y-66242D01*
X414456Y-65811D01*
X417506Y-64548D01*
X420126Y-62538D01*
X422136Y-59918D01*
X423195Y-57361D01*
X424569D01*
X425628Y-59918D01*
X427638Y-62538D01*
X430258Y-64548D01*
X433308Y-65811D01*
X436582Y-66242D01*
X439856Y-65811D01*
X442906Y-64548D01*
X445526Y-62538D01*
X447536Y-59918D01*
X448595Y-57361D01*
X449969D01*
X451028Y-59918D01*
X453038Y-62538D01*
X455658Y-64548D01*
X458708Y-65811D01*
X461982Y-66242D01*
X465256Y-65811D01*
X468306Y-64548D01*
X470926Y-62538D01*
X472936Y-59918D01*
X473995Y-57361D01*
X475369D01*
X476428Y-59918D01*
X478438Y-62538D01*
X481058Y-64548D01*
X484108Y-65811D01*
X487382Y-66242D01*
X490656Y-65811D01*
X493706Y-64548D01*
X496326Y-62538D01*
X498336Y-59918D01*
X499395Y-57361D01*
X500769D01*
X501828Y-59918D01*
X503838Y-62538D01*
X506458Y-64548D01*
X509508Y-65811D01*
X512782Y-66242D01*
X516056Y-65811D01*
X519106Y-64548D01*
X521726Y-62538D01*
X523736Y-59918D01*
X524795Y-57361D01*
X526169D01*
X527228Y-59918D01*
X529238Y-62538D01*
X531858Y-64548D01*
X534908Y-65811D01*
X538182Y-66242D01*
X541456Y-65811D01*
X544506Y-64548D01*
X547126Y-62538D01*
X549136Y-59918D01*
X550195Y-57361D01*
X551569D01*
X552628Y-59918D01*
X554638Y-62538D01*
X557258Y-64548D01*
X560308Y-65811D01*
X562312Y-66075D01*
Y-53594D01*
Y-41113D01*
X560308Y-41377D01*
X557258Y-42640D01*
X554638Y-44650D01*
X552628Y-47270D01*
X551569Y-49827D01*
X550195D01*
X549136Y-47270D01*
X547126Y-44650D01*
X544506Y-42640D01*
X541456Y-41377D01*
X538182Y-40946D01*
X534908Y-41377D01*
X531858Y-42640D01*
X529238Y-44650D01*
X527228Y-47270D01*
X526169Y-49827D01*
X524795D01*
X523736Y-47270D01*
X521726Y-44650D01*
X519106Y-42640D01*
X516056Y-41377D01*
X512782Y-40946D01*
X509508Y-41377D01*
X506458Y-42640D01*
X503838Y-44650D01*
X501828Y-47270D01*
X500769Y-49827D01*
X499395D01*
X498336Y-47270D01*
X496326Y-44650D01*
X493706Y-42640D01*
X490656Y-41377D01*
X487382Y-40946D01*
X484108Y-41377D01*
X481058Y-42640D01*
X478438Y-44650D01*
X476428Y-47270D01*
X475369Y-49827D01*
X473995D01*
X472936Y-47270D01*
X470926Y-44650D01*
X468306Y-42640D01*
X465256Y-41377D01*
X461982Y-40946D01*
X458708Y-41377D01*
X455658Y-42640D01*
X453038Y-44650D01*
X451028Y-47270D01*
X449969Y-49827D01*
X448595D01*
X447536Y-47270D01*
X445526Y-44650D01*
X442906Y-42640D01*
X439856Y-41377D01*
X436582Y-40946D01*
X433308Y-41377D01*
X430258Y-42640D01*
X427638Y-44650D01*
X425628Y-47270D01*
X424569Y-49827D01*
X423195D01*
X422136Y-47270D01*
X420126Y-44650D01*
X417506Y-42640D01*
X414456Y-41377D01*
X411182Y-40946D01*
X407908Y-41377D01*
X404858Y-42640D01*
X402238Y-44650D01*
X400228Y-47270D01*
X399169Y-49827D01*
X397795D01*
X396736Y-47270D01*
X394726Y-44650D01*
X392106Y-42640D01*
X389056Y-41377D01*
X385782Y-40946D01*
X382508Y-41377D01*
X379458Y-42640D01*
X376838Y-44650D01*
X374828Y-47270D01*
X373769Y-49827D01*
X372395D01*
X371336Y-47270D01*
X369326Y-44650D01*
X366706Y-42640D01*
X363656Y-41377D01*
X360382Y-40946D01*
X357108Y-41377D01*
X354058Y-42640D01*
X351438Y-44650D01*
X349428Y-47270D01*
X348369Y-49827D01*
X346995D01*
X345936Y-47270D01*
X343926Y-44650D01*
X341306Y-42640D01*
X338256Y-41377D01*
X334982Y-40946D01*
X331708Y-41377D01*
X328658Y-42640D01*
X326038Y-44650D01*
X324028Y-47270D01*
X322969Y-49827D01*
X321595D01*
X320536Y-47270D01*
X318526Y-44650D01*
X315906Y-42640D01*
X315087Y-42301D01*
Y-39004D01*
X314643Y-36774D01*
X313380Y-34883D01*
X289362Y-10866D01*
X287472Y-9603D01*
X285242Y-9159D01*
X168148D01*
X165918Y-9603D01*
X164028Y-10866D01*
X83510Y-91384D01*
X82247Y-93274D01*
X81803Y-95504D01*
Y-355092D01*
X82247Y-357322D01*
X83510Y-359212D01*
X116530Y-392232D01*
X118234Y-393371D01*
X118193Y-394151D01*
X118023Y-394641D01*
X5155D01*
Y-5155D01*
X694615D01*
Y-394641D01*
D02*
G37*
%LPC*%
G36*
X601522Y-41054D02*
X576442D01*
Y-48554D01*
X575172Y-48806D01*
X574536Y-47270D01*
X572526Y-44650D01*
X569906Y-42640D01*
X566856Y-41377D01*
X564852Y-41113D01*
Y-53594D01*
Y-66075D01*
X566856Y-65811D01*
X569906Y-64548D01*
X572526Y-62538D01*
X574536Y-59918D01*
X575172Y-58382D01*
X576442Y-58635D01*
Y-66134D01*
X581937D01*
Y-86280D01*
X490470Y-177747D01*
X413224D01*
X412280Y-176960D01*
X412280Y-176477D01*
Y-168640D01*
X402990D01*
X393700D01*
Y-176410D01*
X393700Y-176960D01*
X392728Y-177680D01*
X381048D01*
Y-166198D01*
X371841D01*
Y-163354D01*
X375304D01*
Y-144624D01*
X375304Y-143354D01*
X375304Y-142904D01*
Y-135034D01*
X366014D01*
X356724D01*
Y-142904D01*
X356724Y-144174D01*
X356724Y-144624D01*
Y-163354D01*
X360187D01*
Y-166198D01*
X350018D01*
Y-177613D01*
X346326D01*
X308512Y-139798D01*
X307053Y-138679D01*
X305353Y-137975D01*
X303530Y-137735D01*
X250967D01*
X249144Y-137975D01*
X247444Y-138679D01*
X245985Y-139798D01*
X220570Y-165213D01*
X219451Y-166672D01*
X218747Y-168372D01*
X218507Y-170195D01*
Y-256416D01*
X153550Y-321372D01*
X152280Y-320922D01*
Y-320922D01*
X132200D01*
Y-341002D01*
X152280D01*
Y-335810D01*
X156122D01*
X157945Y-335570D01*
X159644Y-334866D01*
X161103Y-333746D01*
X230534Y-264316D01*
X231653Y-262857D01*
X232357Y-261157D01*
X232597Y-259334D01*
Y-173113D01*
X253885Y-151825D01*
X300612D01*
X324502Y-175715D01*
X323808Y-176818D01*
X322948Y-176818D01*
X309853D01*
Y-196088D01*
X324098D01*
Y-178051D01*
X324098Y-177108D01*
X325201Y-176414D01*
X338426Y-189640D01*
X339885Y-190759D01*
X341585Y-191463D01*
X343408Y-191703D01*
X350018D01*
Y-196088D01*
X381048D01*
Y-191770D01*
X393700D01*
Y-196960D01*
X412280D01*
Y-191838D01*
X493388D01*
X495211Y-191597D01*
X496910Y-190894D01*
X498369Y-189774D01*
X593964Y-94180D01*
X595083Y-92721D01*
X595787Y-91021D01*
X596027Y-89198D01*
Y-66134D01*
X601522D01*
Y-41054D01*
D02*
G37*
G36*
X668582Y-40169D02*
X665144Y-40508D01*
X661837Y-41511D01*
X658790Y-43140D01*
X656119Y-45331D01*
X653928Y-48002D01*
X652299Y-51049D01*
X651296Y-54356D01*
X650957Y-57794D01*
X651296Y-61232D01*
X652299Y-64539D01*
X653928Y-67586D01*
X656119Y-70257D01*
X658790Y-72449D01*
X661837Y-74077D01*
X665144Y-75080D01*
X668582Y-75419D01*
X672020Y-75080D01*
X675327Y-74077D01*
X678374Y-72449D01*
X681045Y-70257D01*
X683236Y-67586D01*
X684865Y-64539D01*
X685868Y-61232D01*
X686207Y-57794D01*
X685868Y-54356D01*
X684865Y-51049D01*
X683236Y-48002D01*
X681045Y-45331D01*
X678374Y-43140D01*
X675327Y-41511D01*
X672020Y-40508D01*
X668582Y-40169D01*
D02*
G37*
G36*
X375304Y-124174D02*
X367284D01*
Y-132494D01*
X375304D01*
Y-124174D01*
D02*
G37*
G36*
X364744D02*
X356724D01*
Y-132494D01*
X364744D01*
Y-124174D01*
D02*
G37*
G36*
X142240Y-143035D02*
X139619Y-143380D01*
X137177Y-144392D01*
X135080Y-146001D01*
X133470Y-148098D01*
X132459Y-150541D01*
X132114Y-153162D01*
X132459Y-155783D01*
X133470Y-158225D01*
X135080Y-160322D01*
X137177Y-161932D01*
X139619Y-162943D01*
X142240Y-163288D01*
X144861Y-162943D01*
X147303Y-161932D01*
X149401Y-160322D01*
X151010Y-158225D01*
X152022Y-155783D01*
X152367Y-153162D01*
X152022Y-150541D01*
X151010Y-148098D01*
X149401Y-146001D01*
X147303Y-144392D01*
X144861Y-143380D01*
X142240Y-143035D01*
D02*
G37*
G36*
X412280Y-157780D02*
X404260D01*
Y-166100D01*
X412280D01*
Y-157780D01*
D02*
G37*
G36*
X401720D02*
X393700D01*
Y-166100D01*
X401720D01*
Y-157780D01*
D02*
G37*
G36*
X142240Y-168435D02*
X139619Y-168780D01*
X137177Y-169792D01*
X135080Y-171401D01*
X133470Y-173498D01*
X132459Y-175941D01*
X132114Y-178562D01*
X132459Y-181183D01*
X133470Y-183625D01*
X135080Y-185723D01*
X137177Y-187332D01*
X139619Y-188343D01*
X142240Y-188689D01*
X144861Y-188343D01*
X147303Y-187332D01*
X149401Y-185723D01*
X151010Y-183625D01*
X152022Y-181183D01*
X152367Y-178562D01*
X152022Y-175941D01*
X151010Y-173498D01*
X149401Y-171401D01*
X147303Y-169792D01*
X144861Y-168780D01*
X142240Y-168435D01*
D02*
G37*
G36*
X307313Y-176818D02*
X293068D01*
Y-196088D01*
X307313D01*
Y-176818D01*
D02*
G37*
G36*
X264922Y-161699D02*
X261484Y-162038D01*
X258177Y-163041D01*
X255130Y-164669D01*
X252459Y-166861D01*
X250268Y-169532D01*
X248639Y-172579D01*
X247636Y-175886D01*
X247297Y-179324D01*
X247636Y-182762D01*
X248639Y-186069D01*
X250268Y-189116D01*
X252459Y-191787D01*
X255130Y-193979D01*
X258177Y-195607D01*
X261484Y-196610D01*
X264922Y-196949D01*
X268360Y-196610D01*
X271667Y-195607D01*
X274714Y-193979D01*
X277385Y-191787D01*
X279576Y-189116D01*
X281205Y-186069D01*
X282208Y-182762D01*
X282547Y-179324D01*
X282208Y-175886D01*
X281205Y-172579D01*
X279576Y-169532D01*
X277385Y-166861D01*
X274714Y-164669D01*
X271667Y-163041D01*
X268360Y-162038D01*
X264922Y-161699D01*
D02*
G37*
G36*
X142240Y-193835D02*
X139619Y-194180D01*
X137177Y-195192D01*
X135080Y-196801D01*
X133470Y-198899D01*
X132459Y-201341D01*
X132114Y-203962D01*
X132459Y-206583D01*
X133470Y-209025D01*
X135080Y-211122D01*
X137177Y-212732D01*
X139619Y-213743D01*
X142240Y-214088D01*
X144861Y-213743D01*
X147303Y-212732D01*
X149401Y-211122D01*
X151010Y-209025D01*
X152022Y-206583D01*
X152367Y-203962D01*
X152022Y-201341D01*
X151010Y-198899D01*
X149401Y-196801D01*
X147303Y-195192D01*
X144861Y-194180D01*
X142240Y-193835D01*
D02*
G37*
G36*
X324098Y-198628D02*
X309853D01*
Y-217898D01*
X324098D01*
Y-198628D01*
D02*
G37*
G36*
X307313D02*
X293068D01*
Y-217898D01*
X307313D01*
Y-198628D01*
D02*
G37*
G36*
X142240Y-219235D02*
X139619Y-219580D01*
X137177Y-220592D01*
X135080Y-222201D01*
X133470Y-224298D01*
X132459Y-226741D01*
X132114Y-229362D01*
X132459Y-231983D01*
X133470Y-234425D01*
X135080Y-236523D01*
X137177Y-238132D01*
X139619Y-239143D01*
X142240Y-239489D01*
X144861Y-239143D01*
X147303Y-238132D01*
X149401Y-236523D01*
X151010Y-234425D01*
X152022Y-231983D01*
X152367Y-229362D01*
X152022Y-226741D01*
X151010Y-224298D01*
X149401Y-222201D01*
X147303Y-220592D01*
X144861Y-219580D01*
X142240Y-219235D01*
D02*
G37*
G36*
X414166Y-244028D02*
X406146D01*
Y-252348D01*
X414166D01*
Y-244028D01*
D02*
G37*
G36*
X403606D02*
X395586D01*
Y-252348D01*
X403606D01*
Y-244028D01*
D02*
G37*
G36*
X142240Y-244635D02*
X139619Y-244980D01*
X137177Y-245992D01*
X135080Y-247601D01*
X133470Y-249699D01*
X132459Y-252141D01*
X132114Y-254762D01*
X132459Y-257383D01*
X133470Y-259825D01*
X135080Y-261922D01*
X137177Y-263532D01*
X139619Y-264543D01*
X142240Y-264888D01*
X144861Y-264543D01*
X147303Y-263532D01*
X149401Y-261922D01*
X151010Y-259825D01*
X152022Y-257383D01*
X152367Y-254762D01*
X152022Y-252141D01*
X151010Y-249699D01*
X149401Y-247601D01*
X147303Y-245992D01*
X144861Y-244980D01*
X142240Y-244635D01*
D02*
G37*
G36*
X571894Y-256163D02*
X564586D01*
Y-265938D01*
X571894D01*
Y-256163D01*
D02*
G37*
G36*
X562046D02*
X554739D01*
Y-265938D01*
X562046D01*
Y-256163D01*
D02*
G37*
G36*
X576055Y-242077D02*
X445472D01*
X443242Y-242521D01*
X441352Y-243784D01*
X389553Y-295583D01*
X389056Y-295377D01*
X385782Y-294946D01*
X382508Y-295377D01*
X379458Y-296640D01*
X376838Y-298650D01*
X374828Y-301270D01*
X373769Y-303827D01*
X372395D01*
X371336Y-301270D01*
X369326Y-298650D01*
X366706Y-296640D01*
X363656Y-295377D01*
X360382Y-294946D01*
X357108Y-295377D01*
X354058Y-296640D01*
X351438Y-298650D01*
X349428Y-301270D01*
X348369Y-303827D01*
X346995D01*
X345936Y-301270D01*
X343926Y-298650D01*
X341306Y-296640D01*
X338256Y-295377D01*
X334982Y-294946D01*
X331708Y-295377D01*
X328658Y-296640D01*
X326038Y-298650D01*
X324028Y-301270D01*
X322969Y-303827D01*
X321595D01*
X320536Y-301270D01*
X318526Y-298650D01*
X315906Y-296640D01*
X312856Y-295377D01*
X309582Y-294946D01*
X306308Y-295377D01*
X303258Y-296640D01*
X300638Y-298650D01*
X298628Y-301270D01*
X297569Y-303827D01*
X296195D01*
X295136Y-301270D01*
X293126Y-298650D01*
X290506Y-296640D01*
X287456Y-295377D01*
X284182Y-294946D01*
X280908Y-295377D01*
X277858Y-296640D01*
X275238Y-298650D01*
X273228Y-301270D01*
X272169Y-303827D01*
X270795D01*
X269736Y-301270D01*
X267726Y-298650D01*
X265106Y-296640D01*
X262056Y-295377D01*
X258782Y-294946D01*
X255508Y-295377D01*
X252458Y-296640D01*
X249838Y-298650D01*
X247828Y-301270D01*
X246769Y-303827D01*
X245395D01*
X244336Y-301270D01*
X242326Y-298650D01*
X239706Y-296640D01*
X236656Y-295377D01*
X233382Y-294946D01*
X230108Y-295377D01*
X227058Y-296640D01*
X224438Y-298650D01*
X222428Y-301270D01*
X221165Y-304320D01*
X220734Y-307594D01*
X221165Y-310868D01*
X222428Y-313918D01*
X224438Y-316538D01*
X227058Y-318548D01*
X230108Y-319811D01*
X233382Y-320242D01*
X236656Y-319811D01*
X239706Y-318548D01*
X242326Y-316538D01*
X244336Y-313918D01*
X245395Y-311361D01*
X246769D01*
X247828Y-313918D01*
X249838Y-316538D01*
X252458Y-318548D01*
X255508Y-319811D01*
X258782Y-320242D01*
X262056Y-319811D01*
X265106Y-318548D01*
X267726Y-316538D01*
X269736Y-313918D01*
X270795Y-311361D01*
X272169D01*
X273228Y-313918D01*
X275238Y-316538D01*
X277858Y-318548D01*
X278355Y-318754D01*
Y-348698D01*
X278799Y-350928D01*
X280062Y-352818D01*
X293877Y-366633D01*
X293658Y-368300D01*
X294003Y-370921D01*
X295014Y-373363D01*
X296624Y-375461D01*
X298721Y-377070D01*
X301163Y-378081D01*
X303784Y-378427D01*
X306405Y-378081D01*
X308848Y-377070D01*
X310945Y-375461D01*
X312554Y-373363D01*
X313566Y-370921D01*
X313911Y-368300D01*
X313566Y-365679D01*
X312554Y-363237D01*
X310945Y-361139D01*
X308848Y-359530D01*
X306405Y-358518D01*
X303784Y-358173D01*
X302118Y-358393D01*
X290009Y-346284D01*
Y-318754D01*
X290506Y-318548D01*
X293126Y-316538D01*
X295136Y-313918D01*
X296195Y-311361D01*
X297569D01*
X298628Y-313918D01*
X300638Y-316538D01*
X303258Y-318548D01*
X303755Y-318754D01*
Y-348698D01*
X304199Y-350928D01*
X305462Y-352818D01*
X319277Y-366633D01*
X319058Y-368300D01*
X319403Y-370921D01*
X320414Y-373363D01*
X322024Y-375461D01*
X324121Y-377070D01*
X326563Y-378081D01*
X329184Y-378427D01*
X331805Y-378081D01*
X334248Y-377070D01*
X336345Y-375461D01*
X337954Y-373363D01*
X338966Y-370921D01*
X339311Y-368300D01*
X338966Y-365679D01*
X337954Y-363237D01*
X336345Y-361139D01*
X334248Y-359530D01*
X331805Y-358518D01*
X329184Y-358173D01*
X327518Y-358393D01*
X315409Y-346284D01*
Y-318754D01*
X315906Y-318548D01*
X318526Y-316538D01*
X320536Y-313918D01*
X321595Y-311361D01*
X322969D01*
X324028Y-313918D01*
X326038Y-316538D01*
X328658Y-318548D01*
X329155Y-318754D01*
Y-348698D01*
X329599Y-350928D01*
X330862Y-352818D01*
X344677Y-366633D01*
X344458Y-368300D01*
X344803Y-370921D01*
X345814Y-373363D01*
X347424Y-375461D01*
X349521Y-377070D01*
X351963Y-378081D01*
X354584Y-378427D01*
X357205Y-378081D01*
X359647Y-377070D01*
X361745Y-375461D01*
X363354Y-373363D01*
X364366Y-370921D01*
X364711Y-368300D01*
X364366Y-365679D01*
X363354Y-363237D01*
X361745Y-361139D01*
X359647Y-359530D01*
X357205Y-358518D01*
X354584Y-358173D01*
X352918Y-358393D01*
X340809Y-346284D01*
Y-318754D01*
X341306Y-318548D01*
X343926Y-316538D01*
X345936Y-313918D01*
X346995Y-311361D01*
X348369D01*
X349428Y-313918D01*
X351438Y-316538D01*
X354058Y-318548D01*
X354555Y-318754D01*
Y-348698D01*
X354999Y-350928D01*
X356262Y-352818D01*
X370077Y-366633D01*
X369858Y-368300D01*
X370203Y-370921D01*
X371214Y-373363D01*
X372824Y-375461D01*
X374921Y-377070D01*
X377363Y-378081D01*
X379984Y-378427D01*
X382605Y-378081D01*
X385047Y-377070D01*
X387145Y-375461D01*
X388754Y-373363D01*
X389766Y-370921D01*
X390111Y-368300D01*
X389766Y-365679D01*
X388754Y-363237D01*
X387145Y-361139D01*
X385047Y-359530D01*
X382605Y-358518D01*
X379984Y-358173D01*
X378318Y-358393D01*
X366209Y-346284D01*
Y-318754D01*
X366706Y-318548D01*
X369326Y-316538D01*
X371336Y-313918D01*
X372395Y-311361D01*
X373769D01*
X374828Y-313918D01*
X376838Y-316538D01*
X379458Y-318548D01*
X382508Y-319811D01*
X385782Y-320242D01*
X389056Y-319811D01*
X392106Y-318548D01*
X394726Y-316538D01*
X396736Y-313918D01*
X397795Y-311361D01*
X399169D01*
X400228Y-313918D01*
X402238Y-316538D01*
X404858Y-318548D01*
X407908Y-319811D01*
X411182Y-320242D01*
X414456Y-319811D01*
X417506Y-318548D01*
X420126Y-316538D01*
X422136Y-313918D01*
X423195Y-311361D01*
X424569D01*
X425628Y-313918D01*
X427638Y-316538D01*
X430258Y-318548D01*
X433308Y-319811D01*
X436582Y-320242D01*
X439856Y-319811D01*
X442906Y-318548D01*
X445526Y-316538D01*
X447536Y-313918D01*
X448595Y-311361D01*
X449969D01*
X451028Y-313918D01*
X453038Y-316538D01*
X455658Y-318548D01*
X458708Y-319811D01*
X461982Y-320242D01*
X465256Y-319811D01*
X468306Y-318548D01*
X470926Y-316538D01*
X472936Y-313918D01*
X473995Y-311361D01*
X475369D01*
X476428Y-313918D01*
X478438Y-316538D01*
X481058Y-318548D01*
X484108Y-319811D01*
X487382Y-320242D01*
X490656Y-319811D01*
X493706Y-318548D01*
X496326Y-316538D01*
X498336Y-313918D01*
X499395Y-311361D01*
X500769D01*
X501828Y-313918D01*
X503838Y-316538D01*
X506458Y-318548D01*
X509508Y-319811D01*
X512782Y-320242D01*
X516056Y-319811D01*
X519106Y-318548D01*
X521726Y-316538D01*
X523736Y-313918D01*
X524795Y-311361D01*
X526169D01*
X527228Y-313918D01*
X529238Y-316538D01*
X531858Y-318548D01*
X534908Y-319811D01*
X538182Y-320242D01*
X541456Y-319811D01*
X544506Y-318548D01*
X547126Y-316538D01*
X549136Y-313918D01*
X550195Y-311361D01*
X551569D01*
X552628Y-313918D01*
X554638Y-316538D01*
X557258Y-318548D01*
X560308Y-319811D01*
X562312Y-320075D01*
Y-307594D01*
Y-295113D01*
X560308Y-295377D01*
X557258Y-296640D01*
X554638Y-298650D01*
X552628Y-301270D01*
X551569Y-303827D01*
X550195D01*
X549136Y-301270D01*
X547126Y-298650D01*
X544506Y-296640D01*
X541456Y-295377D01*
X538182Y-294946D01*
X534908Y-295377D01*
X531858Y-296640D01*
X529238Y-298650D01*
X527228Y-301270D01*
X526169Y-303827D01*
X524795D01*
X523736Y-301270D01*
X521726Y-298650D01*
X519106Y-296640D01*
X516056Y-295377D01*
X512782Y-294946D01*
X509508Y-295377D01*
X506458Y-296640D01*
X503838Y-298650D01*
X501828Y-301270D01*
X500769Y-303827D01*
X499395D01*
X498336Y-301270D01*
X496326Y-298650D01*
X493706Y-296640D01*
X490656Y-295377D01*
X487382Y-294946D01*
X484108Y-295377D01*
X481058Y-296640D01*
X478438Y-298650D01*
X476428Y-301270D01*
X475369Y-303827D01*
X473995D01*
X472936Y-301270D01*
X470926Y-298650D01*
X468306Y-296640D01*
X465256Y-295377D01*
X461982Y-294946D01*
X458708Y-295377D01*
X455658Y-296640D01*
X453038Y-298650D01*
X451028Y-301270D01*
X449969Y-303827D01*
X448595D01*
X447536Y-301270D01*
X445526Y-298650D01*
X442906Y-296640D01*
X439856Y-295377D01*
X436582Y-294946D01*
X433308Y-295377D01*
X430258Y-296640D01*
X427638Y-298650D01*
X425628Y-301270D01*
X424569Y-303827D01*
X423195D01*
X422136Y-301270D01*
X420126Y-298650D01*
X417506Y-296640D01*
X414456Y-295377D01*
X411182Y-294946D01*
X408055Y-295357D01*
X407554Y-294846D01*
X407240Y-294377D01*
X447886Y-253731D01*
X573641D01*
X584314Y-264404D01*
Y-278253D01*
X601469D01*
Y-273416D01*
X615611D01*
Y-277395D01*
X632016D01*
Y-258545D01*
X615611D01*
Y-261762D01*
X601469D01*
Y-256163D01*
X592554D01*
X580175Y-243784D01*
X578285Y-242521D01*
X576055Y-242077D01*
D02*
G37*
G36*
X571894Y-268478D02*
X564586D01*
Y-278253D01*
X571894D01*
Y-268478D01*
D02*
G37*
G36*
X562046D02*
X554739D01*
Y-278253D01*
X562046D01*
Y-268478D01*
D02*
G37*
G36*
X588982Y-294946D02*
X585708Y-295377D01*
X582658Y-296640D01*
X580038Y-298650D01*
X578028Y-301270D01*
X576969Y-303827D01*
X575595D01*
X574536Y-301270D01*
X572526Y-298650D01*
X569906Y-296640D01*
X566856Y-295377D01*
X564852Y-295113D01*
Y-307594D01*
Y-320075D01*
X566856Y-319811D01*
X568541Y-319113D01*
X569261Y-320190D01*
X528196Y-361255D01*
X466224D01*
Y-358260D01*
X446144D01*
Y-378340D01*
X466224D01*
Y-375345D01*
X531114D01*
X532938Y-375105D01*
X534637Y-374401D01*
X536096Y-373282D01*
X589159Y-320219D01*
X592256Y-319811D01*
X595306Y-318548D01*
X597926Y-316538D01*
X599936Y-313918D01*
X601199Y-310868D01*
X601630Y-307594D01*
X601199Y-304320D01*
X599936Y-301270D01*
X597926Y-298650D01*
X595306Y-296640D01*
X592256Y-295377D01*
X588982Y-294946D01*
D02*
G37*
G36*
X143510Y-295602D02*
Y-304292D01*
X152200D01*
X152022Y-302941D01*
X151010Y-300499D01*
X149401Y-298401D01*
X147303Y-296792D01*
X144861Y-295780D01*
X143510Y-295602D01*
D02*
G37*
G36*
X140970D02*
X139619Y-295780D01*
X137177Y-296792D01*
X135080Y-298401D01*
X133470Y-300499D01*
X132459Y-302941D01*
X132281Y-304292D01*
X140970D01*
Y-295602D01*
D02*
G37*
G36*
X152200Y-306832D02*
X143510D01*
Y-315521D01*
X144861Y-315343D01*
X147303Y-314332D01*
X149401Y-312722D01*
X151010Y-310625D01*
X152022Y-308183D01*
X152200Y-306832D01*
D02*
G37*
G36*
X140970D02*
X132281D01*
X132459Y-308183D01*
X133470Y-310625D01*
X135080Y-312722D01*
X137177Y-314332D01*
X139619Y-315343D01*
X140970Y-315521D01*
Y-306832D01*
D02*
G37*
G36*
X668582Y-285269D02*
X665144Y-285608D01*
X661837Y-286611D01*
X658790Y-288239D01*
X656119Y-290431D01*
X653928Y-293102D01*
X652299Y-296149D01*
X651296Y-299456D01*
X650957Y-302894D01*
X651296Y-306332D01*
X652299Y-309639D01*
X653928Y-312686D01*
X656119Y-315357D01*
X658790Y-317549D01*
X661837Y-319177D01*
X665144Y-320180D01*
X668582Y-320519D01*
X672020Y-320180D01*
X675327Y-319177D01*
X678374Y-317549D01*
X681045Y-315357D01*
X683236Y-312686D01*
X684865Y-309639D01*
X685868Y-306332D01*
X686207Y-302894D01*
X685868Y-299456D01*
X684865Y-296149D01*
X683236Y-293102D01*
X681045Y-290431D01*
X678374Y-288239D01*
X675327Y-286611D01*
X672020Y-285608D01*
X668582Y-285269D01*
D02*
G37*
G36*
X591538Y-336914D02*
Y-360680D01*
X615304D01*
X614945Y-357042D01*
X613514Y-352321D01*
X611189Y-347971D01*
X608060Y-344159D01*
X604247Y-341029D01*
X599897Y-338704D01*
X595177Y-337272D01*
X591538Y-336914D01*
D02*
G37*
G36*
X588998Y-336914D02*
X585359Y-337272D01*
X580639Y-338704D01*
X576289Y-341029D01*
X572476Y-344159D01*
X569347Y-347971D01*
X567022Y-352321D01*
X565590Y-357042D01*
X565232Y-360680D01*
X588998D01*
Y-336914D01*
D02*
G37*
G36*
X279654Y-358340D02*
Y-367030D01*
X288344D01*
X288166Y-365679D01*
X287154Y-363237D01*
X285545Y-361139D01*
X283447Y-359530D01*
X281005Y-358518D01*
X279654Y-358340D01*
D02*
G37*
G36*
X277114D02*
X275763Y-358518D01*
X273321Y-359530D01*
X271224Y-361139D01*
X269614Y-363237D01*
X268603Y-365679D01*
X268425Y-367030D01*
X277114D01*
Y-358340D01*
D02*
G37*
G36*
X288344Y-369570D02*
X279654D01*
Y-378259D01*
X281005Y-378081D01*
X283447Y-377070D01*
X285545Y-375461D01*
X287154Y-373363D01*
X288166Y-370921D01*
X288344Y-369570D01*
D02*
G37*
G36*
X277114D02*
X268425D01*
X268603Y-370921D01*
X269614Y-373363D01*
X271224Y-375461D01*
X273321Y-377070D01*
X275763Y-378081D01*
X277114Y-378259D01*
Y-369570D01*
D02*
G37*
G36*
X430784Y-358173D02*
X428163Y-358518D01*
X425721Y-359530D01*
X423624Y-361139D01*
X422014Y-363237D01*
X421003Y-365679D01*
X420658Y-368300D01*
X421003Y-370921D01*
X422014Y-373363D01*
X423624Y-375461D01*
X425721Y-377070D01*
X428163Y-378081D01*
X430784Y-378427D01*
X433405Y-378081D01*
X435848Y-377070D01*
X437945Y-375461D01*
X439554Y-373363D01*
X440566Y-370921D01*
X440911Y-368300D01*
X440566Y-365679D01*
X439554Y-363237D01*
X437945Y-361139D01*
X435848Y-359530D01*
X433405Y-358518D01*
X430784Y-358173D01*
D02*
G37*
G36*
X588998Y-363220D02*
X565232D01*
X565590Y-366859D01*
X567022Y-371579D01*
X569347Y-375929D01*
X572476Y-379742D01*
X576289Y-382871D01*
X580639Y-385196D01*
X585359Y-386628D01*
X588998Y-386986D01*
Y-363220D01*
D02*
G37*
G36*
X615304D02*
X591538D01*
Y-386986D01*
X595177Y-386628D01*
X599897Y-385196D01*
X604247Y-382871D01*
X608060Y-379742D01*
X611189Y-375929D01*
X613514Y-371579D01*
X614945Y-366859D01*
X615304Y-363220D01*
D02*
G37*
G36*
X381048Y-198628D02*
X350018D01*
Y-203118D01*
X350018Y-203118D01*
Y-204298D01*
X350018D01*
X350018Y-204388D01*
Y-215818D01*
X350018D01*
Y-216998D01*
X350018D01*
Y-228518D01*
X361565D01*
X362010Y-228859D01*
X363709Y-229563D01*
X365533Y-229803D01*
X394688D01*
X395586Y-230701D01*
X395586Y-233168D01*
X395586Y-233618D01*
Y-241488D01*
X404876D01*
X414166D01*
Y-233618D01*
X414166Y-232348D01*
X414166Y-231898D01*
Y-227771D01*
X613286D01*
X636094Y-250579D01*
Y-258545D01*
X634936D01*
Y-277395D01*
X635321D01*
Y-338688D01*
X635561Y-340511D01*
X635906Y-341344D01*
X632477Y-344159D01*
X629347Y-347971D01*
X627022Y-352321D01*
X625591Y-357042D01*
X625107Y-361950D01*
X625591Y-366859D01*
X627022Y-371579D01*
X629347Y-375929D01*
X632477Y-379742D01*
X636289Y-382871D01*
X640639Y-385196D01*
X645359Y-386628D01*
X650268Y-387111D01*
X655177Y-386628D01*
X659897Y-385196D01*
X664247Y-382871D01*
X668060Y-379742D01*
X671189Y-375929D01*
X673514Y-371579D01*
X674946Y-366859D01*
X675429Y-361950D01*
X674946Y-357042D01*
X673514Y-352321D01*
X671189Y-347971D01*
X668060Y-344159D01*
X664247Y-341029D01*
X659897Y-338704D01*
X655177Y-337272D01*
X650268Y-336789D01*
X649411Y-335688D01*
Y-277395D01*
X651341D01*
Y-258545D01*
X650184D01*
Y-247661D01*
X649944Y-245837D01*
X649240Y-244138D01*
X648121Y-242679D01*
X621186Y-215744D01*
X619727Y-214625D01*
X618027Y-213921D01*
X616204Y-213681D01*
X414166D01*
Y-213168D01*
X395586D01*
Y-215713D01*
X381048D01*
Y-204388D01*
X381048Y-204298D01*
X381048D01*
Y-203118D01*
X381048D01*
Y-198628D01*
D02*
G37*
%LPD*%
D16*
X623813Y-267970D02*
D03*
X643139D02*
D03*
D17*
X592892Y-267208D02*
D03*
X563316D02*
D03*
D18*
X366014Y-153764D02*
D03*
Y-133764D02*
D03*
X404876Y-242759D02*
D03*
Y-222758D02*
D03*
X402990Y-167370D02*
D03*
Y-187370D02*
D03*
D19*
X308583Y-197358D02*
D03*
D20*
X365533Y-171958D02*
D03*
Y-184658D02*
D03*
Y-197358D02*
D03*
Y-210058D02*
D03*
Y-222758D02*
D03*
D34*
X366014Y-171913D02*
Y-153764D01*
X365969Y-171958D02*
X366014Y-171913D01*
X365533Y-171958D02*
X365969D01*
X385782Y-307594D02*
X445472Y-247904D01*
X576055D01*
X592891Y-267208D02*
Y-264741D01*
X576055Y-247904D02*
X592891Y-264741D01*
Y-267208D02*
X593272Y-267589D01*
X623433D01*
X623814Y-267970D01*
X385318Y-388112D02*
X405130Y-368300D01*
X87630Y-355092D02*
X120650Y-388112D01*
X385318D01*
X405130Y-368300D02*
X405384D01*
X108966Y-260350D02*
Y-117348D01*
X194818Y-31496D02*
X243332D01*
X108966Y-117348D02*
X194818Y-31496D01*
X243332D02*
X256170Y-44334D01*
Y-50982D02*
X258782Y-53594D01*
X256170Y-50982D02*
Y-44334D01*
X87630Y-95504D02*
X168148Y-14986D01*
X285242D02*
X309260Y-39004D01*
X168148Y-14986D02*
X285242D01*
X309260Y-53272D02*
X309582Y-53594D01*
X309260Y-53272D02*
Y-39004D01*
X284182Y-88348D02*
Y-53594D01*
X298704Y-102870D02*
X429514D01*
X284182Y-88348D02*
X298704Y-102870D01*
X429514D02*
X430022Y-102362D01*
X329484Y-77724D02*
X334982Y-72226D01*
Y-53594D01*
X321310Y-77724D02*
X329484D01*
X108966Y-260350D02*
X128778Y-280162D01*
X142240D01*
X87630Y-355092D02*
Y-95504D01*
X360382Y-348698D02*
Y-307594D01*
Y-348698D02*
X379984Y-368300D01*
X284182Y-348698D02*
Y-307594D01*
Y-348698D02*
X303784Y-368300D01*
X309582Y-348698D02*
Y-307594D01*
Y-348698D02*
X329184Y-368300D01*
X334982Y-348698D02*
Y-307594D01*
Y-348698D02*
X354584Y-368300D01*
D35*
X404876Y-222758D02*
X406908Y-220726D01*
X616204D01*
X643139Y-247661D01*
X365533Y-222758D02*
X404876D01*
X365533D02*
Y-210058D01*
X643139Y-267970D02*
Y-247661D01*
X642366Y-268743D02*
X643139Y-267970D01*
X643359Y-355041D02*
X650268Y-361950D01*
X643359Y-355041D02*
Y-339680D01*
X642366Y-338688D02*
X643359Y-339680D01*
X642366Y-338688D02*
Y-268743D01*
X250967Y-144780D02*
X303530D01*
X343408Y-184658D01*
X365533D01*
X365533Y-184658D01*
X365600Y-184725D01*
X403285D02*
X403352Y-184792D01*
X365600Y-184725D02*
X403285D01*
X403352Y-184792D02*
X493388D01*
X588982Y-89198D02*
Y-53594D01*
X493388Y-184792D02*
X588982Y-89198D01*
X225552Y-259334D02*
Y-170195D01*
X142240Y-330962D02*
X144438Y-328764D01*
X156122D02*
X225552Y-259334D01*
X144438Y-328764D02*
X156122D01*
X225552Y-170195D02*
X250967Y-144780D01*
X456184Y-368300D02*
X531114D01*
X588982Y-310432D01*
Y-307594D01*
D36*
X668582Y-57794D02*
D03*
X264922Y-179324D02*
D03*
X668582Y-302894D02*
D03*
D37*
X233382Y-307594D02*
D03*
X258782D02*
D03*
X284182D02*
D03*
X309582D02*
D03*
X334982D02*
D03*
X360382D02*
D03*
X385782D02*
D03*
X411182D02*
D03*
X436582D02*
D03*
X461982D02*
D03*
X487382D02*
D03*
X512782D02*
D03*
X538182D02*
D03*
X563582D02*
D03*
X588982D02*
D03*
X233382Y-53594D02*
D03*
X258782D02*
D03*
X284182D02*
D03*
X309582D02*
D03*
X334982D02*
D03*
X360382D02*
D03*
X385782D02*
D03*
X411182D02*
D03*
X436582D02*
D03*
X461982D02*
D03*
X487382D02*
D03*
X512782D02*
D03*
X538182D02*
D03*
X563582D02*
D03*
D38*
X588982D02*
D03*
D39*
X142240Y-153162D02*
D03*
Y-178562D02*
D03*
Y-203962D02*
D03*
Y-229362D02*
D03*
Y-254762D02*
D03*
Y-280162D02*
D03*
Y-305562D02*
D03*
X430784Y-368300D02*
D03*
X405384D02*
D03*
X379984D02*
D03*
X354584D02*
D03*
X329184D02*
D03*
X303784D02*
D03*
X278384D02*
D03*
D40*
X142240Y-330962D02*
D03*
D41*
X456184Y-368300D02*
D03*
D42*
X590268Y-361950D02*
D03*
X650268D02*
D03*
D43*
X430022Y-102362D02*
D03*
X321310Y-77724D02*
D03*
M02*
