G04*
G04 #@! TF.GenerationSoftware,Altium Limited,Altium Designer,20.2.3 (150)*
G04*
G04 Layer_Physical_Order=2*
G04 Layer_Color=16711680*
%FSLAX44Y44*%
%MOMM*%
G71*
G04*
G04 #@! TF.SameCoordinates,5F06F80F-724F-48A1-AB94-725DB31EE99F*
G04*
G04*
G04 #@! TF.FilePolarity,Positive*
G04*
G01*
G75*
%ADD34C,0.6350*%
%ADD36C,3.0000*%
%ADD37C,2.0000*%
%ADD38R,2.0000X2.0000*%
%ADD39C,1.5000*%
%ADD40R,1.5000X1.5000*%
%ADD41R,1.5000X1.5000*%
%ADD42C,4.5000*%
%ADD43C,1.2700*%
D34*
X215646Y-289306D02*
X383286D01*
X430022Y-242570D01*
Y-102362D01*
X142240Y-254762D02*
X155448D01*
X165608Y-244602D02*
Y-96886D01*
X155448Y-254762D02*
X165608Y-244602D01*
X201422Y-303530D02*
X215646Y-289306D01*
X201422Y-305165D02*
Y-303530D01*
X201422Y-327152D02*
X215900Y-341630D01*
X201422Y-327152D02*
Y-305165D01*
X201422Y-305165D01*
X215900Y-341630D02*
X404114D01*
X430784Y-368300D01*
X165608Y-96886D02*
X184770Y-77724D01*
X321310D01*
D36*
X668582Y-57794D02*
D03*
X264922Y-179324D02*
D03*
X668582Y-302894D02*
D03*
D37*
X233382Y-307594D02*
D03*
X258782D02*
D03*
X284182D02*
D03*
X309582D02*
D03*
X334982D02*
D03*
X360382D02*
D03*
X385782D02*
D03*
X411182D02*
D03*
X436582D02*
D03*
X461982D02*
D03*
X487382D02*
D03*
X512782D02*
D03*
X538182D02*
D03*
X563582D02*
D03*
X588982D02*
D03*
X233382Y-53594D02*
D03*
X258782D02*
D03*
X284182D02*
D03*
X309582D02*
D03*
X334982D02*
D03*
X360382D02*
D03*
X385782D02*
D03*
X411182D02*
D03*
X436582D02*
D03*
X461982D02*
D03*
X487382D02*
D03*
X512782D02*
D03*
X538182D02*
D03*
X563582D02*
D03*
D38*
X588982D02*
D03*
D39*
X142240Y-153162D02*
D03*
Y-178562D02*
D03*
Y-203962D02*
D03*
Y-229362D02*
D03*
Y-254762D02*
D03*
Y-280162D02*
D03*
Y-305562D02*
D03*
X430784Y-368300D02*
D03*
X405384D02*
D03*
X379984D02*
D03*
X354584D02*
D03*
X329184D02*
D03*
X303784D02*
D03*
X278384D02*
D03*
D40*
X142240Y-330962D02*
D03*
D41*
X456184Y-368300D02*
D03*
D42*
X590268Y-361950D02*
D03*
X650268D02*
D03*
D43*
X430022Y-102362D02*
D03*
X321310Y-77724D02*
D03*
M02*
